<svg width="100" height="48" viewBox="0 0 185 48" fill="none" xmlns="http://www.w3.org/2000/svg">
<g id='logo'>
<path d="M48 23.79C48 29.2269 46.1148 34.4955 42.6657 38.6983C39.2166 42.901 34.417 45.7778 29.0846 46.8385C23.7522 47.8992 18.2171 47.0781 13.4222 44.5152C8.62731 41.9523 4.86942 37.8061 2.78883 32.7831C0.708239 27.7601 0.433668 22.1711 2.0119 16.9684C3.59013 11.7656 6.92352 7.27106 11.4441 4.2505C15.9647 1.22995 21.3927 -0.129706 26.8034 0.403198C32.2141 0.936101 37.2726 3.3286 41.117 7.17303L38.5485 9.74152C35.2983 6.49133 31.0217 4.46864 26.4474 4.01811C21.873 3.56757 17.284 4.71707 13.4622 7.27073C9.64032 9.8244 6.82218 13.6242 5.48789 18.0228C4.15361 22.4213 4.38574 27.1465 6.14473 31.393C7.90373 35.6396 11.0808 39.1449 15.1345 41.3117C19.1882 43.4785 23.8678 44.1726 28.376 43.2759C32.8841 42.3792 36.9419 39.947 39.8579 36.3939C42.7738 32.8408 44.3676 28.3865 44.3676 23.79H48Z" fill="white"/>
<path d="M16.0159 39.0958C12.4748 37.1329 9.72382 34.003 8.23174 30.2392C6.73967 26.4755 6.59878 22.3108 7.83309 18.4548C9.0674 14.5988 11.6005 11.2901 15.0009 9.09244C18.4012 6.89477 22.4584 5.9441 26.4811 6.40243C30.5038 6.86076 34.2431 8.69972 37.0619 11.606C39.8807 14.5122 41.6047 18.306 41.9399 22.3408C42.2752 26.3756 41.2011 30.4018 38.9006 33.7335C36.6001 37.0651 33.2156 39.496 29.3237 40.612L28.5781 38.0118C31.8684 37.0683 34.7298 35.0132 36.6747 32.1965C38.6196 29.3798 39.5277 25.9759 39.2442 22.5648C38.9608 19.1536 37.5033 15.9463 35.1202 13.4893C32.7371 11.0322 29.5758 9.4775 26.1749 9.09002C22.774 8.70254 19.3439 9.50626 16.4692 11.3642C13.5944 13.2222 11.4528 16.0195 10.4093 19.2795C9.36578 22.5394 9.48489 26.0604 10.7463 29.2424C12.0078 32.4243 14.3335 35.0705 17.3273 36.73L16.0159 39.0958Z" fill="white"/>
<path d="M24.5 11.29C27.3919 11.29 30.1944 12.2928 32.4299 14.1274C34.6654 15.962 36.1956 18.515 36.7598 21.3514C37.324 24.1878 36.8873 27.132 35.524 29.6825C34.1608 32.233 31.9554 34.2318 29.2835 35.3385C26.6117 36.4452 23.6389 36.5913 20.8714 35.7518C18.104 34.9123 15.7133 33.1392 14.1066 30.7347C12.5 28.3301 11.7767 25.4428 12.0602 22.5648C12.3437 19.6868 13.6163 16.9961 15.6612 14.9512L17.0274 16.3174C15.2986 18.0463 14.2227 20.321 13.983 22.7542C13.7434 25.1874 14.3548 27.6283 15.7131 29.6612C17.0715 31.6941 19.0927 33.1931 21.4323 33.9029C23.772 34.6126 26.2853 34.4891 28.5442 33.5535C30.803 32.6178 32.6675 30.9279 33.82 28.7717C34.9726 26.6155 35.3418 24.1263 34.8648 21.7283C34.3878 19.3304 33.0941 17.172 31.2042 15.621C29.3142 14.0699 26.9449 13.2222 24.5 13.2222L24.5 11.29Z" fill="white"/>
<path d="M17.0301 19.7343C17.9685 18.0061 19.477 16.6567 21.2987 15.916C23.1205 15.1754 25.1426 15.0893 27.0207 15.6725C28.8988 16.2556 30.5165 17.4719 31.5983 19.1141C32.6802 20.7563 33.1591 22.7229 32.9535 24.6786C32.748 26.6344 31.8706 28.4583 30.471 29.8397C29.0714 31.2211 27.2361 32.0745 25.2779 32.2545C23.3196 32.4344 21.3595 31.9298 19.7316 30.8266C18.1037 29.7233 16.9086 28.0898 16.3501 26.2043L17.7273 25.7963C18.1915 27.3632 19.1846 28.7207 20.5374 29.6375C21.8902 30.5543 23.5191 30.9737 25.1464 30.8241C26.7738 30.6746 28.2989 29.9654 29.462 28.8175C30.6251 27.6695 31.3542 26.1537 31.525 24.5285C31.6959 22.9032 31.2979 21.269 30.3989 19.9043C29.4999 18.5396 28.1555 17.5288 26.5948 17.0442C25.034 16.5596 23.3536 16.6311 21.8397 17.2466C20.3258 17.8621 19.0722 18.9835 18.2924 20.4196L17.0301 19.7343Z" fill="white"/>
<path d="M28.2197 26.3227C27.6337 27.1833 26.7675 27.8141 25.7687 28.1076C24.7698 28.4011 23.7001 28.3392 22.7417 27.9324C21.7834 27.5256 20.9958 26.7991 20.513 25.8767C20.0303 24.9543 19.8823 23.893 20.0943 22.8737C20.3063 21.8544 20.8652 20.9402 21.6757 20.2868C22.4862 19.6334 23.4982 19.2812 24.5393 19.2903C25.5803 19.2994 26.586 19.6692 27.385 20.3366C28.184 21.0041 28.7269 21.9279 28.921 22.9508L28.0934 23.1079C27.9356 22.2765 27.4944 21.5256 26.845 20.9831C26.1955 20.4406 25.3781 20.14 24.5319 20.1326C23.6858 20.1253 22.8632 20.4115 22.2044 20.9426C21.5456 21.4737 21.0914 22.2168 20.9191 23.0453C20.7467 23.8737 20.867 24.7363 21.2594 25.4861C21.6517 26.2358 22.2919 26.8263 23.0709 27.157C23.8498 27.4876 24.7193 27.5379 25.5312 27.2994C26.3431 27.0608 27.0471 26.5481 27.5234 25.8486L28.2197 26.3227Z" fill="white"/>
<path d="M23.7068 21.4192C24.2553 21.2357 24.8504 21.248 25.3909 21.4541C25.9313 21.6602 26.3835 22.0473 26.6705 22.5495C26.9575 23.0516 27.0615 23.6378 26.9648 24.208C26.8681 24.7783 26.5767 25.2973 26.1402 25.6768C25.7037 26.0563 25.1491 26.2726 24.5709 26.289C23.9928 26.3054 23.4268 26.1209 22.9695 25.7668C22.5122 25.4127 22.1918 24.9109 22.0629 24.3471C21.934 23.7832 22.0046 23.1922 22.2627 22.6745L23.1394 23.1117C22.9825 23.4264 22.9395 23.7859 23.0179 24.1288C23.0963 24.4717 23.2911 24.7768 23.5693 24.9921C23.8474 25.2075 24.1916 25.3197 24.5431 25.3098C24.8947 25.2998 25.232 25.1682 25.4975 24.9374C25.7629 24.7067 25.9402 24.391 25.999 24.0442C26.0578 23.6974 25.9945 23.341 25.82 23.0356C25.6454 22.7302 25.3704 22.4948 25.0418 22.3695C24.7131 22.2442 24.3512 22.2367 24.0176 22.3483L23.7068 21.4192Z" fill="white"/>
<circle cx="24.5" cy="23.79" r="0.5" transform="rotate(-180 24.5 23.79)" fill="white"/>
<path d="M77.83 19.65C77.83 20.71 77.58 21.71 77.08 22.65C76.58 23.59 75.78 24.36 74.68 24.96C73.58 25.54 72.17 25.83 70.45 25.83H66.67V34.29H63.25V13.44H70.45C72.05 13.44 73.4 13.72 74.5 14.28C75.62 14.82 76.45 15.56 76.99 16.5C77.55 17.44 77.83 18.49 77.83 19.65ZM70.45 23.04C71.75 23.04 72.72 22.75 73.36 22.17C74 21.57 74.32 20.73 74.32 19.65C74.32 17.37 73.03 16.23 70.45 16.23H66.67V23.04H70.45ZM88.2618 34.56C86.7018 34.56 85.2918 34.21 84.0318 33.51C82.7718 32.79 81.7818 31.79 81.0618 30.51C80.3418 29.21 79.9818 27.71 79.9818 26.01C79.9818 24.33 80.3518 22.84 81.0918 21.54C81.8318 20.24 82.8418 19.24 84.1218 18.54C85.4018 17.84 86.8318 17.49 88.4118 17.49C89.9918 17.49 91.4218 17.84 92.7018 18.54C93.9818 19.24 94.9918 20.24 95.7318 21.54C96.4718 22.84 96.8418 24.33 96.8418 26.01C96.8418 27.69 96.4618 29.18 95.7018 30.48C94.9418 31.78 93.9018 32.79 92.5818 33.51C91.2818 34.21 89.8418 34.56 88.2618 34.56ZM88.2618 31.59C89.1418 31.59 89.9618 31.38 90.7218 30.96C91.5018 30.54 92.1318 29.91 92.6118 29.07C93.0918 28.23 93.3318 27.21 93.3318 26.01C93.3318 24.81 93.1018 23.8 92.6418 22.98C92.1818 22.14 91.5718 21.51 90.8118 21.09C90.0518 20.67 89.2318 20.46 88.3518 20.46C87.4718 20.46 86.6518 20.67 85.8918 21.09C85.1518 21.51 84.5618 22.14 84.1218 22.98C83.6818 23.8 83.4618 24.81 83.4618 26.01C83.4618 27.79 83.9118 29.17 84.8118 30.15C85.7318 31.11 86.8818 31.59 88.2618 31.59ZM103.643 20.16C104.143 19.32 104.803 18.67 105.623 18.21C106.463 17.73 107.453 17.49 108.593 17.49V21.03H107.723C106.383 21.03 105.363 21.37 104.663 22.05C103.983 22.73 103.643 23.91 103.643 25.59V34.29H100.223V17.76H103.643V20.16ZM115.726 20.55V29.7C115.726 30.32 115.866 30.77 116.146 31.05C116.446 31.31 116.946 31.44 117.646 31.44H119.746V34.29H117.046C115.506 34.29 114.326 33.93 113.506 33.21C112.686 32.49 112.276 31.32 112.276 29.7V20.55H110.326V17.76H112.276V13.65H115.726V17.76H119.746V20.55H115.726ZM129.828 20.55H126.768V34.29H123.318V20.55H121.368V17.76H123.318V16.59C123.318 14.69 123.818 13.31 124.818 12.45C125.838 11.57 127.428 11.13 129.588 11.13V13.98C128.548 13.98 127.818 14.18 127.398 14.58C126.978 14.96 126.768 15.63 126.768 16.59V17.76H129.828V20.55ZM140.029 34.56C138.469 34.56 137.059 34.21 135.799 33.51C134.539 32.79 133.549 31.79 132.829 30.51C132.109 29.21 131.749 27.71 131.749 26.01C131.749 24.33 132.119 22.84 132.859 21.54C133.599 20.24 134.609 19.24 135.889 18.54C137.169 17.84 138.599 17.49 140.179 17.49C141.759 17.49 143.189 17.84 144.469 18.54C145.749 19.24 146.759 20.24 147.499 21.54C148.239 22.84 148.609 24.33 148.609 26.01C148.609 27.69 148.229 29.18 147.469 30.48C146.709 31.78 145.669 32.79 144.349 33.51C143.049 34.21 141.609 34.56 140.029 34.56ZM140.029 31.59C140.909 31.59 141.729 31.38 142.489 30.96C143.269 30.54 143.899 29.91 144.379 29.07C144.859 28.23 145.099 27.21 145.099 26.01C145.099 24.81 144.869 23.8 144.409 22.98C143.949 22.14 143.339 21.51 142.579 21.09C141.819 20.67 140.999 20.46 140.119 20.46C139.239 20.46 138.419 20.67 137.659 21.09C136.919 21.51 136.329 22.14 135.889 22.98C135.449 23.8 135.229 24.81 135.229 26.01C135.229 27.79 135.679 29.17 136.579 30.15C137.499 31.11 138.649 31.59 140.029 31.59ZM155.41 12.09V34.29H151.99V12.09H155.41ZM161.64 15.57C161.02 15.57 160.5 15.36 160.08 14.94C159.66 14.52 159.45 14 159.45 13.38C159.45 12.76 159.66 12.24 160.08 11.82C160.5 11.4 161.02 11.19 161.64 11.19C162.24 11.19 162.75 11.4 163.17 11.82C163.59 12.24 163.8 12.76 163.8 13.38C163.8 14 163.59 14.52 163.17 14.94C162.75 15.36 162.24 15.57 161.64 15.57ZM163.32 17.76V34.29H159.9V17.76H163.32ZM174.981 34.56C173.421 34.56 172.011 34.21 170.751 33.51C169.491 32.79 168.501 31.79 167.781 30.51C167.061 29.21 166.701 27.71 166.701 26.01C166.701 24.33 167.071 22.84 167.811 21.54C168.551 20.24 169.561 19.24 170.841 18.54C172.121 17.84 173.551 17.49 175.131 17.49C176.711 17.49 178.141 17.84 179.421 18.54C180.701 19.24 181.711 20.24 182.451 21.54C183.191 22.84 183.561 24.33 183.561 26.01C183.561 27.69 183.181 29.18 182.421 30.48C181.661 31.78 180.621 32.79 179.301 33.51C178.001 34.21 176.561 34.56 174.981 34.56ZM174.981 31.59C175.861 31.59 176.681 31.38 177.441 30.96C178.221 30.54 178.851 29.91 179.331 29.07C179.811 28.23 180.051 27.21 180.051 26.01C180.051 24.81 179.821 23.8 179.361 22.98C178.901 22.14 178.291 21.51 177.531 21.09C176.771 20.67 175.951 20.46 175.071 20.46C174.191 20.46 173.371 20.67 172.611 21.09C171.871 21.51 171.281 22.14 170.841 22.98C170.401 23.8 170.181 24.81 170.181 26.01C170.181 27.79 170.631 29.17 171.531 30.15C172.451 31.11 173.601 31.59 174.981 31.59Z" fill="white"/>
</g>

<svg width="32" height="32" viewBox="0 0 32 32" fill="none" xmlns="http://www.w3.org/2000/svg">
<g id='git'>
<path fill-rule="evenodd" clip-rule="evenodd" d="M16.0001 1C7.52841 1 0.666748 7.86167 0.666748 16.3333C0.666748 23.1183 5.05591 28.8492 11.1509 30.8808C11.9176 31.015 12.2051 30.555 12.2051 30.1525C12.2051 29.7883 12.1859 28.5808 12.1859 27.2967C8.33342 28.0058 7.33675 26.3575 7.03008 25.495C6.85758 25.0542 6.11008 23.6933 5.45842 23.3292C4.92175 23.0417 4.15508 22.3325 5.43925 22.3133C6.64675 22.2942 7.50925 23.425 7.79675 23.885C9.17675 26.2042 11.3809 25.5525 12.2626 25.15C12.3967 24.1533 12.7992 23.4825 13.2401 23.0992C9.82842 22.7158 6.26342 21.3933 6.26342 15.5283C6.26342 13.8608 6.85758 12.4808 7.83508 11.4075C7.68175 11.0242 7.14508 9.4525 7.98841 7.34417C7.98841 7.34417 9.27258 6.94167 12.2051 8.91583C13.4317 8.57083 14.7351 8.39833 16.0384 8.39833C17.3417 8.39833 18.6451 8.57083 19.8717 8.91583C22.8042 6.9225 24.0884 7.34417 24.0884 7.34417C24.9317 9.4525 24.3951 11.0242 24.2417 11.4075C25.2192 12.4808 25.8134 13.8417 25.8134 15.5283C25.8134 21.4125 22.2292 22.7158 18.8176 23.0992C19.3734 23.5783 19.8526 24.4983 19.8526 25.9358C19.8526 27.9867 19.8334 29.635 19.8334 30.1525C19.8334 30.555 20.1209 31.0342 20.8876 30.8808C26.9443 28.8492 31.3334 23.0992 31.3334 16.3333C31.3334 7.86167 24.4717 1 16.0001 1Z" fill="white"/>
</g>

<g id='linkedin'>
<rect width="32" height="32" rx="3" fill="white"/>
<path d="M6.33333 2.5C4.76853 2.5 3.5 3.76853 3.5 5.33333C3.5 6.89814 4.76853 8.16667 6.33333 8.16667C7.89814 8.16667 9.16667 6.89814 9.16667 5.33333C9.16667 3.76853 7.89814 2.5 6.33333 2.5Z" fill="black"/>
<path d="M3.66667 10.5C3.57462 10.5 3.5 10.5746 3.5 10.6667V28C3.5 28.092 3.57462 28.1667 3.66667 28.1667H9C9.09205 28.1667 9.16667 28.092 9.16667 28V10.6667C9.16667 10.5746 9.09205 10.5 9 10.5H3.66667Z" fill="black"/>
<path d="M12.3333 10.5C12.2413 10.5 12.1667 10.5746 12.1667 10.6667V28C12.1667 28.092 12.2413 28.1667 12.3333 28.1667H17.6667C17.7587 28.1667 17.8333 28.092 17.8333 28V18.6667C17.8333 18.0036 18.0967 17.3677 18.5656 16.8989C19.0344 16.4301 19.6703 16.1667 20.3333 16.1667C20.9964 16.1667 21.6323 16.4301 22.1011 16.8989C22.5699 17.3677 22.8333 18.0036 22.8333 18.6667V28C22.8333 28.092 22.908 28.1667 23 28.1667H28.3333C28.4254 28.1667 28.5 28.092 28.5 28V16.507C28.5 13.2713 25.6859 10.74 22.4665 11.0327C21.4736 11.1229 20.4919 11.3697 19.5753 11.7626L17.8333 12.5091V10.6667C17.8333 10.5746 17.7587 10.5 17.6667 10.5H12.3333Z" fill="black"/>
</g>




<g id='Go'>
<rect width="30" height="30" fill="black" fill-opacity="0.3"/>
<path d="M13.8072 11.2806V22H16.1928V11.2806L21.3134 16.0812L23 14.5L15 7L7 14.5L8.6866 16.0812L13.8072 11.2806Z" fill="white"/>
</g>
<defs>
<clipPath id="clip0_20_2005">
<rect width="30" height="30" fill="white"/>
</clipPath>
</defs>


<g id='telegram'>
<path d="M32.1586 0.340967L1.1503 12.5808C-0.0975299 13.1508 -0.519581 14.2923 0.8487 14.9118L8.80368 17.4995L28.0378 5.33177C29.088 4.5679 30.1632 4.77159 29.238 5.6119L12.7185 20.9224L12.1996 27.4017C12.6802 28.4021 13.5603 28.4068 14.1216 27.9095L18.692 23.4829L26.5195 29.4827C28.3375 30.5844 29.3267 29.8734 29.7179 27.8541L34.852 2.96937C35.3851 0.483814 34.476 -0.611346 32.1586 0.340967Z" fill="white"/>
</g>
</svg>
<svg width="100" height="100" viewBox="0 0 100 100" fill="none" xmlns="http://www.w3.org/2000/svg">
<g id="skill-icons:git" clip-path="url(#clip0_4533_1197)">
<g id="Group">
<path id="Vector" d="M76.5625 0H23.4375C10.4933 0 0 10.4933 0 23.4375V76.5625C0 89.5067 10.4933 100 23.4375 100H76.5625C89.5067 100 100 89.5067 100 76.5625V23.4375C100 10.4933 89.5067 0 76.5625 0Z" fill="#F03C2E"/>
<g id="Clip path group">
<mask id="mask0_4533_1197" style="mask-type:luminance" maskUnits="userSpaceOnUse" x="10" y="10" width="80" height="80">
<g id="skillIconsGit0">
<path id="Vector_2" d="M10.9375 10.9375H89.0625V89.0625H10.9375V10.9375Z" fill="white"/>
</g>
</mask>
<g mask="url(#mask0_4533_1197)">
<g id="Group_2">
<path id="Vector_3" d="M87.5875 46.5211L53.4786 12.4121C52.7753 11.7081 51.8789 11.2286 50.903 11.0343C49.927 10.8401 48.9153 10.9399 47.9961 11.3211C47.3858 11.5741 46.8314 11.9448 46.3645 12.4121L39.2844 19.4922L48.2688 28.4766C50.3586 27.7442 52.7512 28.2446 54.416 29.9098C55.2086 30.7038 55.7619 31.7048 56.0127 32.7982C56.2635 33.8917 56.2017 35.0337 55.8344 36.0938L64.4942 44.7535C66.5891 44.0309 69.0059 44.4969 70.6782 46.1743C71.5158 47.0116 72.0862 48.0786 72.3171 49.2403C72.5481 50.4019 72.4291 51.606 71.9754 52.7C71.3671 54.1668 70.2013 55.332 68.7342 55.9395C67.267 56.5469 65.6187 56.5469 64.1516 55.9395C63.425 55.6383 62.7649 55.1973 62.209 54.641C60.4512 52.8832 60.0168 50.2953 60.9055 48.1297L52.8293 40.0536V61.3063C53.4156 61.5963 53.9513 61.9788 54.416 62.4391C55.5388 63.5619 56.1696 65.0847 56.1696 66.6725C56.1696 68.2603 55.5388 69.7831 54.416 70.9059C53.2933 72.0287 51.7705 72.6594 50.1827 72.6594C48.5948 72.6594 47.072 72.0287 45.9493 70.9059C45.1112 70.069 44.5405 69.0022 44.3092 67.8406C44.0779 66.6791 44.1965 65.475 44.65 64.3809C44.9511 63.6544 45.3926 62.9946 45.9493 62.4391C46.5278 61.8629 47.17 61.4258 47.9098 61.1328V39.6825C47.1757 39.3823 46.5091 38.9383 45.9493 38.3766C45.1087 37.5369 44.5372 36.4659 44.3076 35.3001C44.078 34.1343 44.2008 32.9266 44.6602 31.8309L35.7981 22.9739L12.4094 46.3379C11.7053 47.0415 11.2257 47.9382 11.0314 48.9145C10.8371 49.8907 10.9367 50.9027 11.3176 51.8223C11.5708 52.4329 11.9418 52.9876 12.4094 53.4547L46.5207 87.561C46.9877 88.0282 47.5422 88.3989 48.1524 88.652C49.3853 89.1623 50.7703 89.1623 52.0032 88.652C52.6134 88.3989 53.1678 88.0282 53.6348 87.561L87.5875 53.6621C88.055 53.195 88.4259 52.6403 88.679 52.0298C88.932 51.4192 89.0624 50.7648 89.0625 50.1039C89.0626 49.443 88.9323 48.7884 88.6792 48.1778C88.4261 47.5672 88.0552 47.0125 87.5875 46.5453" fill="white"/>
</g>
</g>
</g>
</g>
</g>
<defs>
<clipPath id="clip0_4533_1197">
<rect width="100" height="100" fill="white"/>
</clipPath>
</defs>
</svg>

<svg width="10" height="10" viewBox="0 0 25 23" fill="none" xmlns="http://www.w3.org/2000/svg">
<g id="gears-svgrepo-com 1" clip-path="url(#clip0_1_4844)">
<g id="Group">
<g id="bigg">
<g id="Group 15">
<path id="big-gear" d="M14.566 11.7999L13.6247 10.9443C13.7274 10.7522 13.8173 10.5548 13.8942 10.3529H15.2253C15.6627 10.3529 16.0175 10.0305 16.0175 9.63275V7.52167C16.0175 7.12402 15.6628 6.80153 15.2253 6.80153H13.8941C13.8173 6.59965 13.7273 6.40233 13.6247 6.21023L14.566 5.35447C14.8754 5.07326 14.8754 4.61728 14.566 4.33607L12.924 2.84333C12.6146 2.56219 12.1132 2.56219 11.8038 2.84333L10.8624 3.69908C10.6511 3.60579 10.4341 3.52395 10.212 3.45416V2.24395C10.212 1.8463 9.85733 1.5238 9.41984 1.5238H7.09766C6.66024 1.5238 6.3055 1.84623 6.3055 2.24395V3.45416C6.08343 3.52402 5.86638 3.60571 5.65507 3.69908L4.71382 2.84333C4.56529 2.7083 4.36376 2.63242 4.15366 2.63242C3.94356 2.63242 3.7421 2.7083 3.5935 2.84333L1.95139 4.33607C1.80287 4.47109 1.71939 4.65431 1.71939 4.84531C1.71939 5.03631 1.80287 5.21945 1.95139 5.35455L2.89273 6.21031C2.7901 6.40233 2.70008 6.59965 2.62331 6.8016H1.29216C0.854667 6.8016 0.5 7.12402 0.5 7.52167V9.63282C0.5 10.0305 0.854667 10.353 1.29216 10.353H2.62331C2.70024 10.5548 2.7901 10.7522 2.89281 10.9443L1.95147 11.8C1.64214 12.0812 1.64214 12.5372 1.95147 12.8184L3.5935 14.3112C3.90291 14.5922 4.40432 14.5924 4.71374 14.3112L5.65507 13.4554C5.8663 13.5488 6.08343 13.6306 6.3055 13.7004V14.9106C6.3055 15.3083 6.66016 15.6308 7.09766 15.6308H9.41992C9.85733 15.6308 10.2121 15.3083 10.2121 14.9106V13.7004C10.4341 13.6305 10.6512 13.5488 10.8625 13.4554L11.8038 14.3112C12.1133 14.5923 12.6147 14.5923 12.9241 14.3112L14.5661 12.8184C14.8754 12.5371 14.8754 12.0812 14.566 11.7999ZM12.5265 9.47172C12.4174 9.9036 12.2309 10.3129 11.9722 10.6881C11.776 10.9725 11.8222 11.3424 12.0833 11.5797L12.8857 12.3092L12.3639 12.7836L11.5614 12.0541C11.3002 11.8167 10.8935 11.775 10.5806 11.953C10.1677 12.1883 9.71762 12.3579 9.24279 12.4569C8.88287 12.532 8.62784 12.8232 8.62784 13.1588V14.1905H7.8899V13.1588C7.8899 12.8232 7.63487 12.5321 7.27495 12.4569C6.80012 12.3579 6.35002 12.1883 5.93709 11.953C5.62453 11.775 5.21749 11.8166 4.95632 12.0541L4.15382 12.7836L3.63204 12.3092L4.43446 11.5797C4.69556 11.3424 4.74162 10.9725 4.54558 10.6881C4.28683 10.3129 4.10032 9.9036 3.99123 9.47172C3.90865 9.14459 3.5884 8.91275 3.21919 8.91275H2.08424V8.24189H3.21895C3.58808 8.24189 3.90832 8.01005 3.99099 7.683C4.10016 7.25104 4.28659 6.84186 4.54533 6.46669C4.74154 6.18232 4.69539 5.81236 4.4343 5.57501L3.6318 4.84546L4.15366 4.37111L4.95608 5.10066C5.21717 5.33809 5.6242 5.37974 5.93693 5.2016C6.3497 4.96637 6.7998 4.7969 7.27471 4.6978C7.63463 4.62272 7.88966 4.33152 7.88966 3.99587V2.9641H8.6276V3.99572C8.6276 4.33137 8.88263 4.6225 9.24255 4.69765C9.71754 4.79675 10.1676 4.96623 10.5803 5.20145C10.8931 5.37975 11.3002 5.33802 11.5612 5.10052L12.3637 4.37097L12.8855 4.84531L12.0829 5.57486C11.8219 5.81229 11.7758 6.18217 11.9719 6.46654C12.2307 6.84171 12.4171 7.25097 12.5263 7.68285C12.6088 8.0099 12.9292 8.24175 13.2983 8.24175H14.433V8.9126H13.2983C12.9293 8.91267 12.6091 9.14452 12.5265 9.47172Z" fill="#E84949"/>
</g>
<path id="Vector" d="M8.25871 5.81006C6.58025 5.81006 5.21475 7.05142 5.21475 8.57729C5.21475 10.1032 6.58025 11.3445 8.25871 11.3445C9.93718 11.3445 11.3027 10.1032 11.3027 8.57729C11.3027 7.05142 9.93726 5.81006 8.25871 5.81006ZM8.25871 9.90431C7.45378 9.90431 6.79899 9.30905 6.79899 8.57729C6.79899 7.84554 7.45386 7.25028 8.25871 7.25028C9.06356 7.25028 9.71843 7.84554 9.71843 8.57729C9.71843 9.30905 9.06364 9.90431 8.25871 9.90431Z" fill="#E84949"/>
</g>
<g id="small">
<g id="Group 14">
<path id="small-gear" d="M23.9811 16.8324C24.3253 16.7746 24.5528 16.4742 24.4893 16.1614L24.1904 14.6882C24.16 14.5379 24.065 14.4049 23.9267 14.3183C23.7882 14.2317 23.6175 14.1985 23.4523 14.2262L22.5731 14.3736C22.505 14.2672 22.4312 14.1639 22.3523 14.0638L22.8592 13.3945C22.9545 13.2686 22.9909 13.1135 22.9604 12.9633C22.93 12.813 22.835 12.6799 22.6966 12.5933L21.3394 11.7438C21.0514 11.5635 20.6566 11.6294 20.4581 11.8915L19.9512 12.5609C19.8202 12.5295 19.6877 12.5038 19.5541 12.4839L19.3919 11.6847C19.3284 11.3719 18.9975 11.1648 18.6538 11.2227L17.0333 11.4945C16.868 11.5222 16.7217 11.6085 16.6264 11.7343C16.5311 11.8602 16.4947 12.0152 16.5251 12.1655L16.6873 12.9647C16.5702 13.0267 16.4565 13.0937 16.3465 13.1655L15.6102 12.7047C15.4717 12.6181 15.3011 12.5851 15.1359 12.6126C14.9706 12.6403 14.8242 12.7266 14.7289 12.8525L13.7945 14.0864C13.6991 14.2122 13.6628 14.3673 13.6932 14.5175C13.7237 14.6678 13.8186 14.8009 13.9571 14.8875L14.6933 15.3483C14.6587 15.4674 14.6305 15.5878 14.6086 15.7094L13.7294 15.8568C13.5641 15.8845 13.4177 15.9708 13.3225 16.0966C13.2271 16.2225 13.1908 16.3776 13.2212 16.5278L13.5202 18.0009C13.5837 18.3138 13.9141 18.521 14.2583 18.4629L15.1375 18.3155C15.2056 18.4219 15.2794 18.5253 15.3583 18.6253L14.8514 19.2946C14.7562 19.4205 14.7197 19.5755 14.7502 19.7258C14.7807 19.8761 14.8756 20.0091 15.014 20.0958L16.3713 20.9453C16.6593 21.1256 17.0541 21.0596 17.2525 20.7975L17.7594 20.1282C17.8904 20.1596 18.0228 20.1852 18.1566 20.2052L18.3188 21.0044C18.3751 21.2819 18.6415 21.4761 18.9412 21.4761C18.9794 21.4761 19.0181 21.473 19.0569 21.4665L20.6773 21.1947C20.8426 21.1671 20.989 21.0807 21.0842 20.955C21.1795 20.8291 21.216 20.674 21.1855 20.5237L21.0233 19.7245C21.1404 19.6625 21.2541 19.5955 21.3642 19.5237L22.1003 19.9845C22.2388 20.0712 22.4093 20.1044 22.5747 20.0766C22.74 20.0489 22.8863 19.9626 22.9816 19.8367L23.9161 18.6029C24.1145 18.3408 24.0418 17.9822 23.7536 17.8018L23.0173 17.3409C23.0519 17.2218 23.0801 17.1014 23.102 16.9799L23.9811 16.8324ZM22.4066 15.9249C22.116 15.9736 21.9011 16.1984 21.8884 16.4667C21.8739 16.7734 21.8034 17.0735 21.679 17.359C21.5701 17.6086 21.6654 17.8935 21.9087 18.0458L22.5129 18.4241L22.2972 18.7089L21.6931 18.3308C21.4496 18.1784 21.1229 18.1992 20.9053 18.3807C20.6564 18.5882 20.373 18.7552 20.063 18.877C19.7918 18.9835 19.6375 19.2463 19.6911 19.5103L19.8242 20.1664L19.4501 20.2291L19.3171 19.5732C19.2635 19.3091 19.0163 19.1136 18.7212 19.1021C18.3836 19.0888 18.0533 19.0248 17.7394 18.9117C17.6632 18.8843 17.5843 18.8711 17.5061 18.8711C17.3024 18.8711 17.105 18.9608 16.984 19.1206L16.568 19.6698L16.2546 19.4737L16.6706 18.9245C16.8381 18.7033 16.8153 18.4063 16.6156 18.2084C16.3874 17.982 16.2037 17.7244 16.0696 17.4425C15.9524 17.196 15.6627 17.0557 15.373 17.1045L14.6514 17.2255L14.5823 16.8855L15.304 16.7645C15.5946 16.7158 15.8095 16.491 15.8221 16.2227C15.8367 15.916 15.9071 15.6158 16.0316 15.3302C16.1404 15.0806 16.0451 14.7958 15.8017 14.6434L15.1975 14.2653L15.4133 13.9804L16.0175 14.3586C16.261 14.511 16.5875 14.4902 16.8052 14.3087C17.0542 14.1011 17.3376 13.9341 17.6477 13.8123C17.9188 13.7057 18.073 13.443 18.0194 13.179L17.8863 12.523L18.2604 12.4603L18.3935 13.1162C18.4471 13.3804 18.6943 13.5758 18.9895 13.5873C19.3268 13.6005 19.657 13.6645 19.971 13.7777C20.2459 13.8767 20.5591 13.7899 20.7265 13.5688L21.1426 13.0195L21.456 13.2156L21.04 13.7649C20.8724 13.9862 20.8952 14.2832 21.0949 14.4811C21.3232 14.7073 21.5069 14.9649 21.6409 15.2468C21.7579 15.4932 22.0473 15.6336 22.3375 15.5848L23.0591 15.4638L23.1281 15.8039L22.4066 15.9249Z" fill="#E84949"/>
</g>
<path id="Vector_2" d="M20.1208 14.6737C19.6299 14.3664 19.0365 14.2514 18.4504 14.3496C17.8642 14.4479 17.3552 14.7479 17.0172 15.1942C16.3193 16.1156 16.5762 17.3813 17.5897 18.0157C17.9753 18.2571 18.4158 18.3728 18.8519 18.3728C19.5621 18.3728 20.261 18.0659 20.6934 17.4951C21.3911 16.5738 21.1343 15.308 20.1208 14.6737ZM19.6495 16.8417C19.348 17.2398 18.7464 17.3407 18.3086 17.0667C17.8707 16.7926 17.7596 16.2457 18.0611 15.8477C18.0612 15.8476 18.0612 15.8476 18.0612 15.8476C18.2071 15.6547 18.4271 15.5252 18.6804 15.4827C18.7393 15.4729 18.7986 15.4679 18.8573 15.4679C19.0507 15.4679 19.2394 15.5209 19.4021 15.6227C19.84 15.8968 19.951 16.4437 19.6495 16.8417Z" fill="#E84949"/>
</g>
</g>
</g>
<defs>
<clipPath id="clip0_1_4844">
<rect width="24" height="21.8182" fill="white" transform="translate(0.5 0.590942)"/>
</clipPath>
</defs>
</svg>

<svg width="100" height="100" viewBox="0 0 100 100" fill="none" xmlns="http://www.w3.org/2000/svg">
<g id="skill-icons:figma-light" clip-path="url(#clip0_4533_1212)">
<g id="Group">
<path id="Vector" d="M76.5625 0H23.4375C10.4933 0 0 10.4933 0 23.4375V76.5625C0 89.5067 10.4933 100 23.4375 100H76.5625C89.5067 100 100 89.5067 100 76.5625V23.4375C100 10.4933 89.5067 0 76.5625 0Z" fill="#F4F2ED"/>
<g id="Clip path group">
<mask id="mask0_4533_1212" style="mask-type:luminance" maskUnits="userSpaceOnUse" x="23" y="10" width="53" height="80">
<g id="skillIconsFigmaLight0">
<path id="Vector_2" d="M23.8281 10.9375H75.9219V89.0625H23.8281V10.9375Z" fill="white"/>
</g>
</mask>
<g mask="url(#mask0_4533_1212)">
<g id="Group_2">
<path id="Vector_3" d="M36.8543 89.0625C44.0418 89.0625 49.875 83.2293 49.875 76.0418V63.0207H36.8543C29.6668 63.0207 23.8333 68.8543 23.8333 76.0418C23.8333 83.2293 29.6668 89.0625 36.8543 89.0625Z" fill="#0ACF83"/>
<path id="Vector_4" d="M23.8333 50C23.8333 42.8125 29.6668 36.9793 36.8543 36.9793H49.875V63.0207H36.8543C29.6668 63.0207 23.8333 57.1875 23.8333 50Z" fill="#A259FF"/>
<path id="Vector_5" d="M23.8333 23.9582C23.8333 16.7707 29.6668 10.9375 36.8543 10.9375H49.875V36.9793H36.8543C29.6668 36.9793 23.8333 31.1457 23.8333 23.9582Z" fill="#F24E1E"/>
<path id="Vector_6" d="M49.875 10.9375H62.8957C70.0832 10.9375 75.9168 16.7707 75.9168 23.9582C75.9168 31.1457 70.0832 36.9793 62.8957 36.9793H49.875V10.9375Z" fill="#FF7262"/>
<path id="Vector_7" d="M75.9168 50C75.9168 57.1875 70.0832 63.0207 62.8957 63.0207C55.7082 63.0207 49.875 57.1875 49.875 50C49.875 42.8125 55.7082 36.9793 62.8957 36.9793C70.0832 36.9793 75.9168 42.8125 75.9168 50Z" fill="#1ABCFE"/>
</g>
</g>
</g>
</g>
</g>
<defs>
<clipPath id="clip0_4533_1212">
<rect width="100" height="100" fill="white"/>
</clipPath>
</defs>
</svg>

<svg width="100" height="100" viewBox="0 0 100 100" fill="none" xmlns="http://www.w3.org/2000/svg">
<g id="skill-icons:git" clip-path="url(#clip0_4533_1197)">
<g id="Group">
<path id="Vector" d="M76.5625 0H23.4375C10.4933 0 0 10.4933 0 23.4375V76.5625C0 89.5067 10.4933 100 23.4375 100H76.5625C89.5067 100 100 89.5067 100 76.5625V23.4375C100 10.4933 89.5067 0 76.5625 0Z" fill="#F03C2E"/>
<g id="Clip path group">
<mask id="mask0_4533_1197" style="mask-type:luminance" maskUnits="userSpaceOnUse" x="10" y="10" width="80" height="80">
<g id="skillIconsGit0">
<path id="Vector_2" d="M10.9375 10.9375H89.0625V89.0625H10.9375V10.9375Z" fill="white"/>
</g>
</mask>
<g mask="url(#mask0_4533_1197)">
<g id="Group_2">
<path id="Vector_3" d="M87.5875 46.5211L53.4786 12.4121C52.7753 11.7081 51.8789 11.2286 50.903 11.0343C49.927 10.8401 48.9153 10.9399 47.9961 11.3211C47.3858 11.5741 46.8314 11.9448 46.3645 12.4121L39.2844 19.4922L48.2688 28.4766C50.3586 27.7442 52.7512 28.2446 54.416 29.9098C55.2086 30.7038 55.7619 31.7048 56.0127 32.7982C56.2635 33.8917 56.2017 35.0337 55.8344 36.0938L64.4942 44.7535C66.5891 44.0309 69.0059 44.4969 70.6782 46.1743C71.5158 47.0116 72.0862 48.0786 72.3171 49.2403C72.5481 50.4019 72.4291 51.606 71.9754 52.7C71.3671 54.1668 70.2013 55.332 68.7342 55.9395C67.267 56.5469 65.6187 56.5469 64.1516 55.9395C63.425 55.6383 62.7649 55.1973 62.209 54.641C60.4512 52.8832 60.0168 50.2953 60.9055 48.1297L52.8293 40.0536V61.3063C53.4156 61.5963 53.9513 61.9788 54.416 62.4391C55.5388 63.5619 56.1696 65.0847 56.1696 66.6725C56.1696 68.2603 55.5388 69.7831 54.416 70.9059C53.2933 72.0287 51.7705 72.6594 50.1827 72.6594C48.5948 72.6594 47.072 72.0287 45.9493 70.9059C45.1112 70.069 44.5405 69.0022 44.3092 67.8406C44.0779 66.6791 44.1965 65.475 44.65 64.3809C44.9511 63.6544 45.3926 62.9946 45.9493 62.4391C46.5278 61.8629 47.17 61.4258 47.9098 61.1328V39.6825C47.1757 39.3823 46.5091 38.9383 45.9493 38.3766C45.1087 37.5369 44.5372 36.4659 44.3076 35.3001C44.078 34.1343 44.2008 32.9266 44.6602 31.8309L35.7981 22.9739L12.4094 46.3379C11.7053 47.0415 11.2257 47.9382 11.0314 48.9145C10.8371 49.8907 10.9367 50.9027 11.3176 51.8223C11.5708 52.4329 11.9418 52.9876 12.4094 53.4547L46.5207 87.561C46.9877 88.0282 47.5422 88.3989 48.1524 88.652C49.3853 89.1623 50.7703 89.1623 52.0032 88.652C52.6134 88.3989 53.1678 88.0282 53.6348 87.561L87.5875 53.6621C88.055 53.195 88.4259 52.6403 88.679 52.0298C88.932 51.4192 89.0624 50.7648 89.0625 50.1039C89.0626 49.443 88.9323 48.7884 88.6792 48.1778C88.4261 47.5672 88.0552 47.0125 87.5875 46.5453" fill="white"/>
</g>
</g>
</g>
</g>
</g>
<defs>
<clipPath id="clip0_4533_1197">
<rect width="100" height="100" fill="white"/>
</clipPath>
</defs>
</svg>

<svg width="100" height="100" viewBox="0 0 100 100" fill="none" xmlns="http://www.w3.org/2000/svg">
<g id='github'>
<path id="Vector" d="M33.7891 69.7917C33.9627 69.5312 33.8976 69.2491 33.5938 68.9453C33.2031 68.6415 32.8993 68.5981 32.6823 68.8151C32.5087 69.0755 32.5738 69.3576 32.8776 69.6615C33.2682 69.9653 33.572 70.0087 33.7891 69.7917ZM31.9661 67.1224C31.7491 66.8186 31.4887 66.7318 31.1849 66.862C30.9245 67.0356 30.9245 67.296 31.1849 67.6432C31.4887 67.9904 31.7491 68.099 31.9661 67.9688C32.2266 67.7951 32.2266 67.513 31.9661 67.1224ZM29.2969 64.5182C29.3837 64.3446 29.2752 64.171 28.9714 63.9974C28.6675 63.9106 28.4939 63.954 28.4505 64.1276C28.3203 64.3446 28.4071 64.5182 28.7109 64.6484C29.0582 64.7352 29.2535 64.6918 29.2969 64.5182ZM30.6641 66.0156C30.7509 65.9722 30.7834 65.8746 30.7617 65.7227C30.74 65.5707 30.6641 65.4514 30.5339 65.3646C30.2734 65.0608 30.0564 64.9957 29.8828 65.1693C29.7092 65.3429 29.7309 65.5816 29.9479 65.8854C30.2083 66.1458 30.447 66.1892 30.6641 66.0156ZM36.263 70.8984C36.3498 70.5946 36.1545 70.3559 35.6771 70.1823C35.2865 70.0521 35.0043 70.1389 34.8307 70.4427C34.7439 70.7465 34.9392 70.9852 35.4167 71.1589C35.8073 71.2891 36.0894 71.2023 36.263 70.8984ZM38.9974 71.0938C38.9974 70.7465 38.737 70.5729 38.2161 70.5729C37.7821 70.5729 37.5651 70.7465 37.5651 71.0938C37.5651 71.441 37.8038 71.6146 38.2812 71.6146C38.7587 71.6146 38.9974 71.441 38.9974 71.0938ZM41.5365 70.638C41.4496 70.3342 41.1675 70.2257 40.6901 70.3125C40.2127 70.3993 40.0174 70.5946 40.1042 70.8984C40.191 71.2457 40.4514 71.3759 40.8854 71.2891C41.3194 71.2023 41.5365 70.9852 41.5365 70.638ZM83.3333 50C83.3333 40.7986 80.0781 32.9427 73.5677 26.4323C67.0573 19.9219 59.2014 16.6667 50 16.6667C40.7986 16.6667 32.9427 19.9219 26.4323 26.4323C19.9219 32.9427 16.6667 40.7986 16.6667 50C16.6667 57.2483 18.7934 63.7695 23.0469 69.5638C27.3003 75.3581 32.7691 79.3837 39.4531 81.6406C40.2344 81.7708 40.8095 81.6623 41.1784 81.3151C41.5473 80.9679 41.7318 80.5339 41.7318 80.013C41.7318 77.7561 41.7101 75.6944 41.6667 73.8281C41.4062 73.8715 41.0699 73.9258 40.6576 73.9909C40.2452 74.056 39.4748 74.0994 38.3464 74.1211C37.2179 74.1428 36.1762 74.056 35.2214 73.8607C34.2665 73.6654 33.3225 73.2313 32.3893 72.5586C31.4562 71.8858 30.816 70.9852 30.4687 69.8568C29.4705 67.296 28.2335 65.6901 26.7578 65.0391C26.671 64.9957 26.5733 64.9197 26.4648 64.8112L25.944 64.2904L25.4883 63.6719L25.7487 63.1836L27.0182 62.9557C27.2786 62.9557 27.6042 62.9991 27.9948 63.0859C28.3854 63.1727 29.0365 63.5091 29.9479 64.095C30.8594 64.681 31.5755 65.4514 32.0964 66.4062C32.7908 67.6215 33.6046 68.533 34.5378 69.1406C35.4709 69.7483 36.4149 70.0521 37.3698 70.0521C38.3246 70.0521 39.1493 69.9761 39.8438 69.8242C40.5382 69.6723 41.1892 69.4661 41.7969 69.2057C42.1007 67.1658 42.8168 65.6684 43.9453 64.7135C41.8186 64.4531 39.9523 64.0516 38.3464 63.5091C36.7405 62.9666 35.1562 62.1202 33.5938 60.9701C32.0312 59.8199 30.8268 58.1706 29.9805 56.0221C29.1341 53.8737 28.7109 51.2804 28.7109 48.2422C28.7109 44.8134 29.8611 41.8403 32.1615 39.3229C31.1198 36.6319 31.2283 33.6806 32.487 30.4687C33.3116 30.2083 34.4944 30.3711 36.0352 30.957C37.576 31.543 38.8889 32.1832 39.974 32.8776L41.6667 33.9193C44.184 33.1814 46.9618 32.8125 50 32.8125C53.0382 32.8125 55.816 33.1814 58.3333 33.9193C58.8108 33.6155 59.4293 33.2248 60.1888 32.7474C60.9483 32.27 62.1528 31.7057 63.8021 31.0547C65.4514 30.4036 66.6884 30.2083 67.513 30.4687C68.7717 33.6806 68.8802 36.6319 67.8385 39.3229C70.1389 41.8403 71.2891 44.8134 71.2891 48.2422C71.2891 50.7161 70.9852 52.8971 70.3776 54.7852C69.77 56.6732 68.9996 58.1923 68.0664 59.3424C67.1332 60.4926 65.9722 61.4583 64.5833 62.2396C63.1944 63.0208 61.8381 63.5851 60.5143 63.9323C59.1905 64.2795 57.704 64.5399 56.0547 64.7135C57.5738 66.059 58.3333 68.1207 58.3333 70.8984C58.3333 72.6345 58.3225 74.566 58.3008 76.6927C58.2791 78.8194 58.2682 79.9262 58.2682 80.013C58.2682 80.5339 58.4527 80.9679 58.8216 81.3151C59.1905 81.6623 59.7656 81.7708 60.5469 81.6406C67.2309 79.3837 72.6997 75.3581 76.9531 69.5638C81.2066 63.7695 83.3333 57.2483 83.3333 50ZM100 18.75V81.25C100 86.4149 98.1662 90.8312 94.4987 94.4987C90.8312 98.1662 86.4149 100 81.25 100H18.75C13.5851 100 9.16884 98.1662 5.5013 94.4987C1.83377 90.8312 0 86.4149 0 81.25V18.75C0 13.5851 1.83377 9.16884 5.5013 5.5013C9.16884 1.83377 13.5851 0 18.75 0H81.25C86.4149 0 90.8312 1.83377 94.4987 5.5013C98.1662 9.16884 100 13.5851 100 18.75Z" fill="white"/>
</g>
</svg>
<svg xmlns="http://www.w3.org/2000/svg" width="16" height="16" fill="currentColor" class="bi bi-github" viewBox="0 0 16 16">
<g id='gi'>
  <path d="M8 0C3.58 0 0 3.58 0 8c0 3.54 2.29 6.53 5.47 7.59.4.07.55-.17.55-.38 0-.19-.01-.82-.01-1.49-2.01.37-2.53-.49-2.69-.94-.09-.23-.48-.94-.82-1.13-.28-.15-.68-.52-.01-.53.63-.01 1.08.58 1.23.82.72 1.21 1.87.87 2.33.66.07-.52.28-.87.51-1.07-1.78-.2-3.64-.89-3.64-3.95 0-.87.31-1.59.82-2.15-.08-.2-.36-1.02.08-2.12 0 0 .67-.21 2.2.82.64-.18 1.32-.27 2-.27.68 0 1.36.09 2 .27 1.53-1.04 2.2-.82 2.2-.82.44 1.1.16 1.92.08 2.12.51.56.82 1.27.82 2.15 0 3.07-1.87 3.75-3.65 3.95.29.25.54.73.54 1.48 0 1.07-.01 1.93-.01 2.2 0 .21.15.46.55.38A8.012 8.012 0 0 0 16 8c0-4.42-3.58-8-8-8z"/>
  </g>
</svg>

























